<?xml version="1.0" encoding="UTF-8" standalone="no"?><!-- Generator: Gravit.io --><svg xmlns="http://www.w3.org/2000/svg" xmlns:xlink="http://www.w3.org/1999/xlink" style="isolation:isolate" viewBox="0 0 300 300" width="300pt" height="300pt"><defs><clipPath id="_clipPath_nNrKWcIZfy33NHeClfRf719yPBDrpiuG"><rect width="300" height="300"/></clipPath></defs><g clip-path="url(#_clipPath_nNrKWcIZfy33NHeClfRf719yPBDrpiuG)"><path d=" M 174.505 254.977 L 174.505 254.977 C 164.53 264.952 148.332 264.952 138.357 254.977 L 73.29 189.91 C 63.315 179.935 63.315 163.737 73.29 153.762 L 73.29 153.762 C 83.266 143.786 99.463 143.786 109.438 153.762 L 174.505 218.829 C 184.481 228.804 184.481 245.001 174.505 254.977 Z " fill="rgb(0,0,0)"/><path d=" M 62.767 173.033 C 62.894 175.826 63.417 178.517 64.287 181.046 L 49.376 166.166 C 39.372 156.183 39.372 139.974 49.376 129.991 L 49.376 129.991 C 59.379 120.008 75.622 120.008 85.625 129.991 L 100.588 144.923 C 97.65 143.896 94.493 143.338 91.206 143.338 C 90.554 143.338 89.908 143.36 89.269 143.411 C 82.306 143.071 75.227 145.555 69.914 150.868 L 69.914 150.868 C 63.883 156.899 61.498 165.204 62.767 173.033 Z " fill="rgb(0,0,0)"/><path d=" M 59.193 254.83 C 49.218 244.854 49.218 228.657 59.193 218.682 C 69.169 208.706 85.366 208.706 95.341 218.682 C 105.317 228.657 105.317 244.854 95.341 254.83 C 85.366 264.805 69.169 264.805 59.193 254.83 Z " fill="rgb(0,0,0)"/><path d=" M 224.833 90.902 C 214.858 80.927 214.858 64.729 224.833 54.754 C 234.809 44.779 251.006 44.779 260.981 54.754 C 270.957 64.729 270.957 80.927 260.981 90.902 C 251.006 100.878 234.809 100.878 224.833 90.902 Z " fill="rgb(0,0,0)"/><path d=" M 124.982 123.572 L 124.982 123.572 C 134.958 113.597 151.155 113.597 161.13 123.572 L 260.9 223.342 C 270.875 233.317 270.875 249.514 260.9 259.49 L 260.9 259.49 C 250.924 269.465 234.727 269.465 224.752 259.49 L 124.982 159.72 C 115.007 149.745 115.007 133.548 124.982 123.572 Z " fill="rgb(0,0,0)"/><path d=" M 150.723 114.045 L 85.913 49.235 C 75.938 39.259 59.74 39.259 49.765 49.235 L 49.765 49.235 C 39.789 59.21 39.789 75.407 49.765 85.383 L 115.764 151.382 C 114.564 148.235 113.906 144.821 113.906 141.254 C 113.906 137.128 114.786 133.206 116.384 129.673 C 117.613 126.641 119.465 123.807 121.923 121.35 L 121.923 121.349 C 122.887 120.386 123.909 119.515 124.978 118.739 C 129.784 115.011 135.818 112.796 142.365 112.796 C 145.273 112.796 148.08 113.233 150.723 114.045 Z " fill="rgb(0,0,0)"/><path d=" M 135.413 54.254 L 135.413 54.254 C 145.388 44.278 161.586 44.278 171.561 54.254 L 236.628 119.321 C 246.603 129.296 246.603 145.494 236.628 155.469 L 236.628 155.469 C 226.652 165.444 210.455 165.444 200.48 155.469 L 135.413 90.402 C 125.437 80.427 125.437 64.229 135.413 54.254 Z " fill="rgb(0,0,0)"/><path d=" M 247.151 136.198 C 247.024 133.405 246.501 130.714 245.631 128.184 L 260.543 143.065 C 270.546 153.048 270.546 169.257 260.543 179.24 L 260.542 179.24 C 250.539 189.222 234.296 189.222 224.293 179.24 L 209.33 164.307 C 212.268 165.334 215.425 165.893 218.712 165.893 C 219.364 165.893 220.011 165.871 220.649 165.82 C 227.613 166.159 234.691 163.676 240.004 158.363 L 240.004 158.363 C 246.035 152.332 248.42 144.026 247.151 136.198 Z " fill="rgb(0,0,0)"/></g></svg>